<svg width="18" height="18" viewBox="0 0 18 18" fill="none" xmlns="http://www.w3.org/2000/svg">
<path d="M13.45 12.7333V7.23333C13.4478 6.53782 13.1705 5.87141 12.6787 5.37961C12.1869 4.8878 11.5205 4.61053 10.825 4.60833H3.325V3.9C3.32498 2.8766 3.7298 1.89475 4.45111 1.16876C5.17241 0.442775 6.15162 0.0316041 7.175 0.0250015H14.0417C15.0694 0.0250015 16.055 0.433259 16.7817 1.15996C17.5084 1.88667 17.9167 2.87229 17.9167 3.9V8.9C17.9145 9.91909 17.511 10.8963 16.7935 11.62C16.0761 12.3438 15.1024 12.7557 14.0833 12.7667L13.45 12.7333ZM10.825 3.35833C11.8527 3.35833 12.8383 3.76659 13.565 4.4933C14.2917 5.22 14.7 6.20562 14.7 7.23333V11.4C15.2562 11.256 15.7499 10.9334 16.1051 10.4818C16.4604 10.0302 16.6576 9.47452 16.6667 8.9V3.9C16.6645 3.20448 16.3872 2.53808 15.8954 2.04627C15.4036 1.55447 14.7372 1.2772 14.0417 1.275H7.175C6.57161 1.27426 5.98651 1.48208 5.51877 1.86325C5.05103 2.24443 4.72939 2.77555 4.60833 3.36667L10.825 3.35833ZM7.39166 17.975C7.11941 17.9763 6.85097 17.911 6.60982 17.7846C6.36867 17.6582 6.16216 17.4746 6.00833 17.25L5.25833 16.1917C5.23235 16.1517 5.19641 16.1191 5.15404 16.0972C5.11167 16.0753 5.06433 16.0648 5.01667 16.0667H4C3.48763 16.0722 2.97926 15.976 2.5043 15.7837C2.02935 15.5915 1.59724 15.3069 1.23298 14.9465C0.868733 14.5862 0.579571 14.1571 0.382233 13.6843C0.184896 13.2114 0.0833024 12.7041 0.0833321 12.1917V7.23333C0.0833024 6.72094 0.184896 6.21362 0.382233 5.74075C0.579571 5.26788 0.868733 4.83884 1.23298 4.47846C1.59724 4.11808 2.02935 3.83352 2.5043 3.64126C2.97926 3.44899 3.48763 3.35283 4 3.35833H10.8667C11.8944 3.35833 12.88 3.76659 13.6067 4.4933C14.3334 5.22 14.7417 6.20562 14.7417 7.23333V12.1917C14.7417 13.2194 14.3334 14.205 13.6067 14.9317C12.88 15.6584 11.8944 16.0667 10.8667 16.0667H9.76667C9.71913 16.0656 9.67208 16.0764 9.62985 16.0983C9.58761 16.1201 9.55156 16.1522 9.525 16.1917L8.775 17.25C8.62117 17.4746 8.41466 17.6582 8.17351 17.7846C7.93236 17.911 7.66392 17.9763 7.39166 17.975ZM4 4.60833C3.65209 4.60393 3.30676 4.66851 2.98395 4.79835C2.66115 4.9282 2.36728 5.12072 2.11932 5.36481C1.87137 5.60889 1.67424 5.89969 1.53933 6.22041C1.40442 6.54113 1.33441 6.8854 1.33333 7.23333V12.1917C1.33107 12.5413 1.39868 12.8879 1.53221 13.2111C1.66573 13.5342 1.86247 13.8275 2.11088 14.0735C2.35929 14.3196 2.65436 14.5136 2.97877 14.6441C3.30318 14.7745 3.65038 14.8389 4 14.8333H5.01667C5.26536 14.8321 5.51061 14.8914 5.73128 15.0061C5.95195 15.1208 6.14142 15.2874 6.28333 15.4917L7.025 16.5C7.06633 16.559 7.1212 16.6071 7.185 16.6405C7.2488 16.6738 7.31967 16.6914 7.39166 16.6917C7.46366 16.6914 7.53453 16.6738 7.59833 16.6405C7.66213 16.6071 7.717 16.559 7.75833 16.5L8.5 15.4417C8.64736 15.2466 8.83921 15.0897 9.05954 14.9839C9.27988 14.878 9.52233 14.8264 9.76667 14.8333H10.825C11.5212 14.8333 12.1889 14.5568 12.6812 14.0645C13.1734 13.5722 13.45 12.9045 13.45 12.2083V7.23333C13.4478 6.53782 13.1705 5.87141 12.6787 5.37961C12.1869 4.8878 11.5205 4.61053 10.825 4.60833H4ZM4.48333 9C4.3284 9 4.17695 9.04594 4.04814 9.13202C3.91932 9.21809 3.81892 9.34043 3.75963 9.48357C3.70034 9.6267 3.68483 9.7842 3.71505 9.93616C3.74528 10.0881 3.81988 10.2277 3.92943 10.3372C4.03898 10.4468 4.17856 10.5214 4.33051 10.5516C4.48246 10.5818 4.63997 10.5663 4.7831 10.507C4.92624 10.4478 5.04858 10.3474 5.13465 10.2185C5.22072 10.0897 5.26667 9.93826 5.26667 9.78333C5.2645 9.57625 5.18127 9.37827 5.03484 9.23183C4.8884 9.0854 4.69041 9.00217 4.48333 9ZM7.4 9C7.24659 8.99705 7.0957 9.03922 6.96605 9.12127C6.83639 9.20332 6.73369 9.32164 6.67069 9.46154C6.60769 9.60144 6.58716 9.75676 6.61165 9.90823C6.63614 10.0597 6.70458 10.2006 6.80846 10.3136C6.91234 10.4265 7.0471 10.5064 7.196 10.5434C7.34491 10.5804 7.5014 10.5729 7.64606 10.5217C7.79072 10.4706 7.91717 10.3781 8.00972 10.2557C8.10227 10.1333 8.15684 9.98645 8.16667 9.83333C8.17227 9.72799 8.15676 9.62259 8.12105 9.52333C8.08534 9.42406 8.03015 9.33294 7.95873 9.25531C7.8873 9.17767 7.80108 9.11509 7.70514 9.07125C7.60919 9.02741 7.50544 9.00318 7.4 9ZM10.3083 9C10.1534 9 10.002 9.04594 9.87313 9.13202C9.74432 9.21809 9.64392 9.34043 9.58463 9.48357C9.52534 9.6267 9.50982 9.7842 9.54005 9.93616C9.57028 10.0881 9.64488 10.2277 9.75443 10.3372C9.86398 10.4468 10.0036 10.5214 10.1555 10.5516C10.3075 10.5818 10.465 10.5663 10.6081 10.507C10.7512 10.4478 10.8736 10.3474 10.9597 10.2185C11.0457 10.0897 11.0917 9.93826 11.0917 9.78333C11.0895 9.57625 11.0063 9.37827 10.8598 9.23183C10.7134 9.0854 10.5154 9.00217 10.3083 9Z" fill="#7E8299"/>
</svg>
