<svg width="16" height="16" viewBox="0 0 16 16" fill="none" xmlns="http://www.w3.org/2000/svg">
<path d="M8.04297 1.04199C6.6585 1.04199 5.30512 1.45253 4.15398 2.2217C3.00284 2.99087 2.10563 4.08412 1.57582 5.36321C1.046 6.64229 0.907378 8.04976 1.17747 9.40762C1.44757 10.7655 2.11426 12.0128 3.09322 12.9917C4.07219 13.9707 5.31947 14.6374 6.67734 14.9075C8.0352 15.1776 9.44267 15.039 10.7218 14.5091C12.0008 13.9793 13.0941 13.0821 13.8633 11.931C14.6324 10.7798 15.043 9.42646 15.043 8.04199C15.043 6.18548 14.3055 4.405 12.9927 3.09224C11.68 1.77949 9.89948 1.04199 8.04297 1.04199ZM8.04297 14.0652C6.84855 14.0652 5.68099 13.7109 4.68804 13.047C3.6951 12.3832 2.92143 11.4397 2.46494 10.3359C2.00846 9.23219 1.88968 8.01783 2.12365 6.84655C2.35762 5.67527 2.93381 4.59974 3.7793 3.75607C4.6248 2.9124 5.70157 2.33853 6.87335 2.10709C8.04513 1.87565 9.25924 1.99705 10.362 2.45592C11.4647 2.91479 12.4066 3.6905 13.0683 4.68487C13.73 5.67925 14.0818 6.84758 14.0792 8.04199C14.0775 9.64238 13.441 11.1767 12.3094 12.3084C11.1777 13.44 9.64336 14.0765 8.04297 14.0783V14.0652ZM11.2988 8.04199C11.2988 8.16979 11.248 8.29235 11.1576 8.38272C11.0673 8.47308 10.9447 8.52385 10.8169 8.52385H8.04297C7.91517 8.52385 7.79261 8.47308 7.70224 8.38272C7.61188 8.29235 7.56111 8.16979 7.56111 8.04199V4.08292C7.56111 3.95512 7.61188 3.83256 7.70224 3.74219C7.79261 3.65183 7.91517 3.60106 8.04297 3.60106C8.17077 3.60106 8.29333 3.65183 8.3837 3.74219C8.47406 3.83256 8.52483 3.95512 8.52483 4.08292V7.56013H10.8365C10.9608 7.56518 11.0784 7.61816 11.1646 7.70799C11.2508 7.79781 11.2989 7.91751 11.2988 8.04199Z" fill="#7E8299" stroke="#7E8299" stroke-width="0.5" stroke-linejoin="round"/>
</svg>
