<svg width="10" height="6" viewBox="0 0 10 6" fill="none" xmlns="http://www.w3.org/2000/svg">
<path d="M5.00002 0.533323C4.91228 0.532816 4.82531 0.549634 4.74408 0.58281C4.66286 0.615986 4.58898 0.664869 4.52669 0.726657L0.526689 4.72666C0.46453 4.78882 0.415222 4.86261 0.381582 4.94382C0.347942 5.02504 0.330627 5.11208 0.330627 5.19999C0.330627 5.37753 0.401153 5.54779 0.526689 5.67332C0.652224 5.79886 0.822487 5.86938 1.00002 5.86938C1.17756 5.86938 1.34782 5.79886 1.47336 5.67332L5.00002 2.14666L8.52669 5.67332C8.58885 5.73548 8.66264 5.78479 8.74386 5.81843C8.82507 5.85207 8.91212 5.86938 9.00002 5.86938C9.08793 5.86938 9.17497 5.85207 9.25619 5.81843C9.3374 5.78479 9.41119 5.73548 9.47335 5.67332C9.53551 5.61116 9.58482 5.53737 9.61846 5.45616C9.6521 5.37494 9.66942 5.2879 9.66942 5.19999C9.66942 5.11208 9.6521 5.02504 9.61846 4.94382C9.58482 4.86261 9.53551 4.78882 9.47335 4.72666L5.47335 0.726657C5.41106 0.664869 5.33718 0.615986 5.25596 0.58281C5.17473 0.549634 5.08776 0.532816 5.00002 0.533323Z" fill="#A1A5B7"/>
</svg>
