<svg width="14" height="14" viewBox="0 0 14 14" fill="none" xmlns="http://www.w3.org/2000/svg">
<path d="M12.5825 11.3225L10.71 9.57249C11.5057 8.51173 11.8736 7.19059 11.7407 5.87121C11.6078 4.55183 10.9837 3.33064 9.99234 2.44995C9.00098 1.56925 7.71476 1.09341 6.38891 1.11685C5.06306 1.14029 3.79447 1.6613 2.83485 2.57649C1.87524 3.49168 1.29473 4.73416 1.20852 6.05742C1.1223 7.38067 1.53668 8.68798 2.36943 9.71995C3.20218 10.7519 4.39244 11.4331 5.70404 11.6284C7.01564 11.8237 8.35273 11.5188 9.44999 10.7742L11.375 12.6C11.535 12.7462 11.7417 12.831 11.9583 12.8392C12.0781 12.8402 12.1967 12.8157 12.3063 12.7675C12.4159 12.7192 12.514 12.6482 12.5942 12.5592C12.6752 12.4775 12.7393 12.3806 12.7826 12.2741C12.826 12.1675 12.8478 12.0534 12.8467 11.9384C12.8456 11.8234 12.8217 11.7097 12.7763 11.604C12.731 11.4982 12.6651 11.4026 12.5825 11.3225ZM6.47499 10.1092C5.7371 10.108 5.01611 9.88822 4.40306 9.47755C3.79001 9.06688 3.3124 8.48376 3.03056 7.80182C2.74871 7.11988 2.67527 6.36971 2.81951 5.64606C2.96375 4.92241 3.3192 4.25773 3.84096 3.73596C4.36272 3.2142 5.0274 2.85875 5.75106 2.71452C6.47471 2.57028 7.22487 2.64372 7.90681 2.92556C8.58875 3.20741 9.17188 3.68501 9.58254 4.29806C9.99321 4.91111 10.213 5.63211 10.2142 6.36999C10.2142 6.86103 10.1174 7.34725 9.92953 7.80091C9.74162 8.25457 9.46619 8.66677 9.11898 9.01398C8.77176 9.3612 8.35956 9.63662 7.9059 9.82453C7.45225 10.0124 6.96602 10.1092 6.47499 10.1092Z" fill="#A1A5B7"/>
</svg>
