<svg width="12" height="12" viewBox="0 0 12 12" fill="none" xmlns="http://www.w3.org/2000/svg">
<path d="M11 6.83331H6.83334V11C6.83334 11.221 6.74554 11.433 6.58926 11.5892C6.43298 11.7455 6.22102 11.8333 6 11.8333C5.77899 11.8333 5.56703 11.7455 5.41075 11.5892C5.25447 11.433 5.16667 11.221 5.16667 11V6.83331H1.00001C0.778991 6.83331 0.56703 6.74552 0.41075 6.58924C0.254469 6.43295 0.166672 6.22099 0.166672 5.99998C0.166672 5.77897 0.254469 5.567 0.41075 5.41072C0.56703 5.25444 0.778991 5.16665 1.00001 5.16665H5.16667V0.99998C5.16667 0.778966 5.25447 0.567004 5.41075 0.410724C5.56703 0.254443 5.77899 0.166647 6 0.166647C6.22102 0.166647 6.43298 0.254443 6.58926 0.410724C6.74554 0.567004 6.83334 0.778966 6.83334 0.99998V5.16665H11C11.221 5.16665 11.433 5.25444 11.5893 5.41072C11.7455 5.567 11.8333 5.77897 11.8333 5.99998C11.8333 6.22099 11.7455 6.43295 11.5893 6.58924C11.433 6.74552 11.221 6.83331 11 6.83331Z" fill="#2884EF"/>
</svg>
